<svg xmlns="http://www.w3.org/2000/svg" width="1200" height="620" viewBox="0 0 1200 620">
<defs><linearGradient id="g" x1="0" y1="0" x2="1" y2="1"><stop stop-color="#111827"/><stop offset="1" stop-color="#312e81"/></linearGradient></defs>
<rect width="1200" height="620" rx="24" fill="#0b1020"/>
<rect x="24" y="24" width="1152" height="72" rx="18" fill="url(#g)"/>
<circle cx="62" cy="60" r="18" fill="#f97316"/><text x="92" y="68" fill="#fff" font-size="28" font-family="Segoe UI" font-weight="700">KitsuneDesk</text>
<rect x="900" y="42" width="110" height="36" rx="18" fill="#7c3aed"/><text x="955" y="66" text-anchor="middle" fill="#fff" font-size="15" font-family="Segoe UI">Histórico</text>
<rect x="1024" y="42" width="120" height="36" rx="18" fill="#ec4899"/><text x="1084" y="66" text-anchor="middle" fill="#fff" font-size="15" font-family="Segoe UI">Configurações</text>
<text x="48" y="145" fill="#fff" font-size="34" font-family="Segoe UI" font-weight="700">O que vamos assistir hoje?</text>
<rect x="48" y="170" width="720" height="54" rx="14" fill="#171e32" stroke="#4f46e5"/>
<text x="72" y="204" fill="#94a3b8" font-size="18" font-family="Segoe UI">Pesquise pelo nome do anime...</text>
<rect x="786" y="170" width="150" height="54" rx="14" fill="#7c3aed"/><text x="861" y="204" text-anchor="middle" fill="#fff" font-size="18" font-family="Segoe UI" font-weight="600">Pesquisar</text>
<rect x="952" y="170" width="92" height="54" rx="14" fill="#1e293b"/><text x="998" y="203" text-anchor="middle" fill="#c4b5fd" font-size="16" font-family="Segoe UI">Dublado</text>
<rect x="1056" y="170" width="96" height="54" rx="14" fill="#1e293b"/><text x="1104" y="203" text-anchor="middle" fill="#67e8f9" font-size="16" font-family="Segoe UI">1080p</text>
<text x="48" y="278" fill="#f8fafc" font-size="25" font-family="Segoe UI" font-weight="700">Continuar assistindo</text>
<rect x="48" y="300" width="1104" height="118" rx="18" fill="#171e32"/>
<rect x="66" y="318" width="135" height="82" rx="12" fill="#4f46e5"/>
<text x="222" y="346" fill="#fff" font-size="22" font-family="Segoe UI" font-weight="700">Anime em andamento</text>
<text x="222" y="376" fill="#94a3b8" font-size="16" font-family="Segoe UI">Episódio 8 • Dublado • 31 min restantes</text>
<rect x="890" y="335" width="220" height="50" rx="14" fill="#ec4899"/><text x="1000" y="367" text-anchor="middle" fill="#fff" font-size="17" font-family="Segoe UI" font-weight="600">Continuar episódio</text>
<text x="48" y="468" fill="#f8fafc" font-size="25" font-family="Segoe UI" font-weight="700">Resultados recentes</text>
<g transform="translate(48 492)">
<rect width="250" height="98" rx="16" fill="#171e32"/><rect x="14" y="14" width="70" height="70" rx="10" fill="#f97316"/><text x="98" y="43" fill="#fff" font-size="17" font-family="Segoe UI" font-weight="700">Título do anime</text><text x="98" y="70" fill="#c4b5fd" font-size="14" font-family="Segoe UI">24 episódios</text>
</g>
<g transform="translate(322 492)">
<rect width="250" height="98" rx="16" fill="#171e32"/><rect x="14" y="14" width="70" height="70" rx="10" fill="#22d3ee"/><text x="98" y="43" fill="#fff" font-size="17" font-family="Segoe UI" font-weight="700">Título do anime</text><text x="98" y="70" fill="#67e8f9" font-size="14" font-family="Segoe UI">12 episódios</text>
</g>
<g transform="translate(596 492)">
<rect width="250" height="98" rx="16" fill="#171e32"/><rect x="14" y="14" width="70" height="70" rx="10" fill="#8b5cf6"/><text x="98" y="43" fill="#fff" font-size="17" font-family="Segoe UI" font-weight="700">Título do anime</text><text x="98" y="70" fill="#ddd6fe" font-size="14" font-family="Segoe UI">48 episódios</text>
</g>
<g transform="translate(870 492)">
<rect width="282" height="98" rx="16" fill="#171e32"/><rect x="14" y="14" width="70" height="70" rx="10" fill="#ec4899"/><text x="98" y="43" fill="#fff" font-size="17" font-family="Segoe UI" font-weight="700">Título do anime</text><text x="98" y="70" fill="#f9a8d4" font-size="14" font-family="Segoe UI">Em lançamento</text>
</g>
</svg>