<svg xmlns="http://www.w3.org/2000/svg" width="256" height="256" viewBox="0 0 256 256">
<defs>
  <linearGradient id="a" x1="0" y1="0" x2="1" y2="1">
    <stop offset="0%" stop-color="#7c3aed"/>
    <stop offset="100%" stop-color="#ec4899"/>
  </linearGradient>
  <linearGradient id="b" x1="0" y1="0" x2="1" y2="1">
    <stop offset="0%" stop-color="#f97316"/>
    <stop offset="100%" stop-color="#facc15"/>
  </linearGradient>
</defs>
<rect width="256" height="256" rx="58" fill="url(#a)"/>
<path d="M128 45 L183 105 L169 181 Q128 219 87 181 L73 105 Z" fill="url(#b)"/>
<path d="M73 105 L45 53 L102 77 Z" fill="#fb923c"/>
<path d="M183 105 L211 53 L154 77 Z" fill="#fb923c"/>
<path d="M98 132 Q128 157 158 132 Q151 181 128 193 Q105 181 98 132Z" fill="#fff7ed"/>
<circle cx="102" cy="119" r="7" fill="#111827"/>
<circle cx="154" cy="119" r="7" fill="#111827"/>
<path d="M121 151 Q128 158 135 151 Q133 166 128 168 Q123 166 121 151" fill="#111827"/>
</svg>