<svg xmlns="http://www.w3.org/2000/svg" width="1200" height="620" viewBox="0 0 1200 620">
<defs><linearGradient id="gp" x1="0" y1="0" x2="1" y2="1"><stop stop-color="#111827"/><stop offset="1" stop-color="#4c1d95"/></linearGradient></defs>
<rect width="1200" height="620" rx="24" fill="#0b1020"/>
<rect x="32" y="32" width="1136" height="360" rx="22" fill="url(#gp)"/>
<circle cx="600" cy="212" r="56" fill="#fff" opacity=".16"/>
<polygon points="584,180 584,244 632,212" fill="#fff"/>
<text x="56" y="438" fill="#fff" font-size="30" font-family="Segoe UI" font-weight="700">Nome do anime</text>
<text x="56" y="474" fill="#c4b5fd" font-size="18" font-family="Segoe UI">Episódio 8 • Dublado • 1080p</text>
<rect x="56" y="510" width="1088" height="10" rx="5" fill="#1e293b"/><rect x="56" y="510" width="620" height="10" rx="5" fill="#ec4899"/>
<g>
<rect x="56" y="545" width="190" height="48" rx="14" fill="#1e293b"/><text x="151" y="576" text-anchor="middle" fill="#fff" font-size="16" font-family="Segoe UI">Episódio anterior</text>
<rect x="262" y="545" width="150" height="48" rx="14" fill="#7c3aed"/><text x="337" y="576" text-anchor="middle" fill="#fff" font-size="16" font-family="Segoe UI">Pausar</text>
<rect x="428" y="545" width="190" height="48" rx="14" fill="#ec4899"/><text x="523" y="576" text-anchor="middle" fill="#fff" font-size="16" font-family="Segoe UI">Próximo episódio</text>
<rect x="1000" y="545" width="144" height="48" rx="14" fill="#334155"/><text x="1072" y="576" text-anchor="middle" fill="#fff" font-size="16" font-family="Segoe UI">Volume 80%</text>
</g>
</svg>